<?xml version="1.0" encoding="UTF-8" standalone="no"?>
<!-- Created with Inkscape (http://www.inkscape.org/) -->

<svg
   xmlns:dc="http://purl.org/dc/elements/1.1/"
   xmlns:cc="http://creativecommons.org/ns#"
   xmlns:rdf="http://www.w3.org/1999/02/22-rdf-syntax-ns#"
   xmlns:svg="http://www.w3.org/2000/svg"
   xmlns="http://www.w3.org/2000/svg"
   xmlns:sodipodi="http://sodipodi.sourceforge.net/DTD/sodipodi-0.dtd"
   xmlns:inkscape="http://www.inkscape.org/namespaces/inkscape"
   width="1062.9921"
   height="850.39368"
   id="svg2999"
   version="1.1"
   inkscape:version="0.48.3.1 r9886"
   sodipodi:docname="Shield Generator Mounts x 2.svg">
  <defs
     id="defs3001" />
  <sodipodi:namedview
     id="base"
     pagecolor="#ffffff"
     bordercolor="#666666"
     borderopacity="1.0"
     inkscape:pageopacity="0.0"
     inkscape:pageshadow="2"
     inkscape:zoom="0.7"
     inkscape:cx="263.29043"
     inkscape:cy="421.35933"
     inkscape:document-units="mm"
     inkscape:current-layer="layer1"
     showgrid="false"
     units="mm"
     inkscape:window-width="1301"
     inkscape:window-height="744"
     inkscape:window-x="65"
     inkscape:window-y="24"
     inkscape:window-maximized="1" />
  <metadata
     id="metadata3004">
    <rdf:RDF>
      <cc:Work
         rdf:about="">
        <dc:format>image/svg+xml</dc:format>
        <dc:type
           rdf:resource="http://purl.org/dc/dcmitype/StillImage" />
        <dc:title></dc:title>
      </cc:Work>
    </rdf:RDF>
  </metadata>
  <g
     inkscape:label="Layer 1"
     inkscape:groupmode="layer"
     id="layer1"
     transform="translate(0,-201.96851)">
    <g
       id="g3392"
       transform="matrix(0,1,-1,0,1043.7524,197.02821)">
      <rect
         y="226.59447"
         x="17.893702"
         height="807.87402"
         width="389.76379"
         id="rect3009"
         style="fill:none;stroke:#050000;stroke-width:0.35433072;stroke-miterlimit:4;stroke-opacity:1;stroke-dasharray:none" />
      <path
         transform="matrix(1.0707701,0,0,1.1302573,4.7275177,99.289085)"
         d="m 31.819804,785.23883 c 0,2.51051 -2.148238,4.54569 -4.798224,4.54569 -2.649986,0 -4.798225,-2.03518 -4.798225,-4.54569 0,-2.51051 2.148239,-4.54569 4.798225,-4.54569 2.649986,0 4.798224,2.03518 4.798224,4.54569 z"
         sodipodi:ry="4.5456862"
         sodipodi:rx="4.7982244"
         sodipodi:cy="785.23883"
         sodipodi:cx="27.02158"
         id="path3850"
         style="fill:none;stroke:#000000;stroke-width:0.32208613;stroke-miterlimit:4;stroke-opacity:1;stroke-dasharray:none"
         sodipodi:type="arc" />
      <path
         transform="matrix(1.0707701,0,0,1.1302573,362.60153,99.289085)"
         d="m 31.819804,785.23883 c 0,2.51051 -2.148238,4.54569 -4.798224,4.54569 -2.649986,0 -4.798225,-2.03518 -4.798225,-4.54569 0,-2.51051 2.148239,-4.54569 4.798225,-4.54569 2.649986,0 4.798224,2.03518 4.798224,4.54569 z"
         sodipodi:ry="4.5456862"
         sodipodi:rx="4.7982244"
         sodipodi:cy="785.23883"
         sodipodi:cx="27.02158"
         id="path3850-9"
         style="fill:none;stroke:#000000;stroke-width:0.32208613;stroke-miterlimit:4;stroke-opacity:1;stroke-dasharray:none"
         sodipodi:type="arc" />
      <path
         transform="matrix(1.0707701,0,0,1.1302573,4.7275026,138.26552)"
         d="m 31.819804,785.23883 c 0,2.51051 -2.148238,4.54569 -4.798224,4.54569 -2.649986,0 -4.798225,-2.03518 -4.798225,-4.54569 0,-2.51051 2.148239,-4.54569 4.798225,-4.54569 2.649986,0 4.798224,2.03518 4.798224,4.54569 z"
         sodipodi:ry="4.5456862"
         sodipodi:rx="4.7982244"
         sodipodi:cy="785.23883"
         sodipodi:cx="27.02158"
         id="path3850-99"
         style="fill:none;stroke:#000000;stroke-width:0.32208613;stroke-miterlimit:4;stroke-opacity:1;stroke-dasharray:none"
         sodipodi:type="arc" />
      <path
         transform="matrix(1.0707701,0,0,1.1302573,362.60152,138.26552)"
         d="m 31.819804,785.23883 c 0,2.51051 -2.148238,4.54569 -4.798224,4.54569 -2.649986,0 -4.798225,-2.03518 -4.798225,-4.54569 0,-2.51051 2.148239,-4.54569 4.798225,-4.54569 2.649986,0 4.798224,2.03518 4.798224,4.54569 z"
         sodipodi:ry="4.5456862"
         sodipodi:rx="4.7982244"
         sodipodi:cy="785.23883"
         sodipodi:cx="27.02158"
         id="path3850-9-8"
         style="fill:none;stroke:#000000;stroke-width:0.32208613;stroke-miterlimit:4;stroke-opacity:1;stroke-dasharray:none"
         sodipodi:type="arc" />
      <path
         transform="matrix(1.0707701,0,0,1.1302573,4.7275007,-276.30149)"
         d="m 31.819804,785.23883 c 0,2.51051 -2.148238,4.54569 -4.798224,4.54569 -2.649986,0 -4.798225,-2.03518 -4.798225,-4.54569 0,-2.51051 2.148239,-4.54569 4.798225,-4.54569 2.649986,0 4.798224,2.03518 4.798224,4.54569 z"
         sodipodi:ry="4.5456862"
         sodipodi:rx="4.7982244"
         sodipodi:cy="785.23883"
         sodipodi:cx="27.02158"
         id="path3850-6"
         style="fill:none;stroke:#000000;stroke-width:0.32208613;stroke-miterlimit:4;stroke-opacity:1;stroke-dasharray:none"
         sodipodi:type="arc" />
      <path
         transform="matrix(1.0707701,0,0,1.1302573,362.60153,-276.30149)"
         d="m 31.819804,785.23883 c 0,2.51051 -2.148238,4.54569 -4.798224,4.54569 -2.649986,0 -4.798225,-2.03518 -4.798225,-4.54569 0,-2.51051 2.148239,-4.54569 4.798225,-4.54569 2.649986,0 4.798224,2.03518 4.798224,4.54569 z"
         sodipodi:ry="4.5456862"
         sodipodi:rx="4.7982244"
         sodipodi:cy="785.23883"
         sodipodi:cx="27.02158"
         id="path3850-9-6"
         style="fill:none;stroke:#000000;stroke-width:0.32208613;stroke-miterlimit:4;stroke-opacity:1;stroke-dasharray:none"
         sodipodi:type="arc" />
      <path
         transform="matrix(1.0707701,0,0,1.1302573,4.7274907,-237.32505)"
         d="m 31.819804,785.23883 c 0,2.51051 -2.148238,4.54569 -4.798224,4.54569 -2.649986,0 -4.798225,-2.03518 -4.798225,-4.54569 0,-2.51051 2.148239,-4.54569 4.798225,-4.54569 2.649986,0 4.798224,2.03518 4.798224,4.54569 z"
         sodipodi:ry="4.5456862"
         sodipodi:rx="4.7982244"
         sodipodi:cy="785.23883"
         sodipodi:cx="27.02158"
         id="path3850-99-1"
         style="fill:none;stroke:#000000;stroke-width:0.32208613;stroke-miterlimit:4;stroke-opacity:1;stroke-dasharray:none"
         sodipodi:type="arc" />
      <path
         transform="matrix(1.0707701,0,0,1.1302573,362.60152,-237.32505)"
         d="m 31.819804,785.23883 c 0,2.51051 -2.148238,4.54569 -4.798224,4.54569 -2.649986,0 -4.798225,-2.03518 -4.798225,-4.54569 0,-2.51051 2.148239,-4.54569 4.798225,-4.54569 2.649986,0 4.798224,2.03518 4.798224,4.54569 z"
         sodipodi:ry="4.5456862"
         sodipodi:rx="4.7982244"
         sodipodi:cy="785.23883"
         sodipodi:cx="27.02158"
         id="path3850-9-8-1"
         style="fill:none;stroke:#000000;stroke-width:0.32208613;stroke-miterlimit:4;stroke-opacity:1;stroke-dasharray:none"
         sodipodi:type="arc" />
      <path
         transform="matrix(1.0707701,0,0,1.1302573,4.7275436,-651.89206)"
         d="m 31.819804,785.23883 c 0,2.51051 -2.148238,4.54569 -4.798224,4.54569 -2.649986,0 -4.798225,-2.03518 -4.798225,-4.54569 0,-2.51051 2.148239,-4.54569 4.798225,-4.54569 2.649986,0 4.798224,2.03518 4.798224,4.54569 z"
         sodipodi:ry="4.5456862"
         sodipodi:rx="4.7982244"
         sodipodi:cy="785.23883"
         sodipodi:cx="27.02158"
         id="path3850-4"
         style="fill:none;stroke:#000000;stroke-width:0.32208613;stroke-miterlimit:4;stroke-opacity:1;stroke-dasharray:none"
         sodipodi:type="arc" />
      <path
         transform="matrix(1.0707701,0,0,1.1302573,362.60155,-651.89206)"
         d="m 31.819804,785.23883 c 0,2.51051 -2.148238,4.54569 -4.798224,4.54569 -2.649986,0 -4.798225,-2.03518 -4.798225,-4.54569 0,-2.51051 2.148239,-4.54569 4.798225,-4.54569 2.649986,0 4.798224,2.03518 4.798224,4.54569 z"
         sodipodi:ry="4.5456862"
         sodipodi:rx="4.7982244"
         sodipodi:cy="785.23883"
         sodipodi:cx="27.02158"
         id="path3850-9-80"
         style="fill:none;stroke:#000000;stroke-width:0.32208613;stroke-miterlimit:4;stroke-opacity:1;stroke-dasharray:none"
         sodipodi:type="arc" />
      <path
         transform="matrix(1.0707701,0,0,1.1302573,4.7275236,-612.91562)"
         d="m 31.819804,785.23883 c 0,2.51051 -2.148238,4.54569 -4.798224,4.54569 -2.649986,0 -4.798225,-2.03518 -4.798225,-4.54569 0,-2.51051 2.148239,-4.54569 4.798225,-4.54569 2.649986,0 4.798224,2.03518 4.798224,4.54569 z"
         sodipodi:ry="4.5456862"
         sodipodi:rx="4.7982244"
         sodipodi:cy="785.23883"
         sodipodi:cx="27.02158"
         id="path3850-99-2"
         style="fill:none;stroke:#000000;stroke-width:0.32208613;stroke-miterlimit:4;stroke-opacity:1;stroke-dasharray:none"
         sodipodi:type="arc" />
      <path
         transform="matrix(1.0707701,0,0,1.1302573,362.60154,-612.91562)"
         d="m 31.819804,785.23883 c 0,2.51051 -2.148238,4.54569 -4.798224,4.54569 -2.649986,0 -4.798225,-2.03518 -4.798225,-4.54569 0,-2.51051 2.148239,-4.54569 4.798225,-4.54569 2.649986,0 4.798224,2.03518 4.798224,4.54569 z"
         sodipodi:ry="4.5456862"
         sodipodi:rx="4.7982244"
         sodipodi:cy="785.23883"
         sodipodi:cx="27.02158"
         id="path3850-9-8-9"
         style="fill:none;stroke:#000000;stroke-width:0.32208613;stroke-miterlimit:4;stroke-opacity:1;stroke-dasharray:none"
         sodipodi:type="arc" />
      <rect
         transform="scale(-1,-1)"
         y="-615.72156"
         x="-471.12119"
         height="389.40945"
         width="17.362206"
         id="rect3848-2"
         style="fill:none;stroke:#000000;stroke-width:0.35433072;stroke-miterlimit:4;stroke-opacity:1;stroke-dasharray:none" />
      <path
         transform="matrix(0,1.0707701,-1.1302573,0,1349.9619,213.14596)"
         d="m 31.819804,785.23883 c 0,2.51051 -2.148238,4.54569 -4.798224,4.54569 -2.649986,0 -4.798225,-2.03518 -4.798225,-4.54569 0,-2.51051 2.148239,-4.54569 4.798225,-4.54569 2.649986,0 4.798224,2.03518 4.798224,4.54569 z"
         sodipodi:ry="4.5456862"
         sodipodi:rx="4.7982244"
         sodipodi:cy="785.23883"
         sodipodi:cx="27.02158"
         id="path3850-90"
         style="fill:none;stroke:#000000;stroke-width:0.32208613;stroke-miterlimit:4;stroke-opacity:1;stroke-dasharray:none"
         sodipodi:type="arc" />
      <path
         transform="matrix(0,1.0707701,-1.1302573,0,1349.9619,571.01995)"
         d="m 31.819804,785.23883 c 0,2.51051 -2.148238,4.54569 -4.798224,4.54569 -2.649986,0 -4.798225,-2.03518 -4.798225,-4.54569 0,-2.51051 2.148239,-4.54569 4.798225,-4.54569 2.649986,0 4.798224,2.03518 4.798224,4.54569 z"
         sodipodi:ry="4.5456862"
         sodipodi:rx="4.7982244"
         sodipodi:cy="785.23883"
         sodipodi:cx="27.02158"
         id="path3850-9-4"
         style="fill:none;stroke:#000000;stroke-width:0.32208613;stroke-miterlimit:4;stroke-opacity:1;stroke-dasharray:none"
         sodipodi:type="arc" />
      <rect
         transform="scale(-1,-1)"
         y="-615.72156"
         x="-432.14471"
         height="389.40945"
         width="17.362206"
         id="rect3848-6-4"
         style="fill:none;stroke:#000000;stroke-width:0.35433072;stroke-miterlimit:4;stroke-opacity:1;stroke-dasharray:none" />
      <path
         transform="matrix(0,1.0707701,-1.1302573,0,1310.9855,213.14596)"
         d="m 31.819804,785.23883 c 0,2.51051 -2.148238,4.54569 -4.798224,4.54569 -2.649986,0 -4.798225,-2.03518 -4.798225,-4.54569 0,-2.51051 2.148239,-4.54569 4.798225,-4.54569 2.649986,0 4.798224,2.03518 4.798224,4.54569 z"
         sodipodi:ry="4.5456862"
         sodipodi:rx="4.7982244"
         sodipodi:cy="785.23883"
         sodipodi:cx="27.02158"
         id="path3850-99-8"
         style="fill:none;stroke:#000000;stroke-width:0.32208613;stroke-miterlimit:4;stroke-opacity:1;stroke-dasharray:none"
         sodipodi:type="arc" />
      <path
         transform="matrix(0,1.0707701,-1.1302573,0,1310.9855,571.01995)"
         d="m 31.819804,785.23883 c 0,2.51051 -2.148238,4.54569 -4.798224,4.54569 -2.649986,0 -4.798225,-2.03518 -4.798225,-4.54569 0,-2.51051 2.148239,-4.54569 4.798225,-4.54569 2.649986,0 4.798224,2.03518 4.798224,4.54569 z"
         sodipodi:ry="4.5456862"
         sodipodi:rx="4.7982244"
         sodipodi:cy="785.23883"
         sodipodi:cx="27.02158"
         id="path3850-9-8-2"
         style="fill:none;stroke:#000000;stroke-width:0.32208613;stroke-miterlimit:4;stroke-opacity:1;stroke-dasharray:none"
         sodipodi:type="arc" />
      <rect
         transform="scale(-1,-1)"
         y="-615.72156"
         x="-490.81918"
         height="389.40945"
         width="17.362206"
         id="rect3848-2-0"
         style="fill:none;stroke:#000000;stroke-width:0.35433072;stroke-miterlimit:4;stroke-opacity:1;stroke-dasharray:none" />
      <path
         transform="matrix(0,1.0707701,-1.1302573,0,1369.6599,213.14598)"
         d="m 31.819804,785.23883 c 0,2.51051 -2.148238,4.54569 -4.798224,4.54569 -2.649986,0 -4.798225,-2.03518 -4.798225,-4.54569 0,-2.51051 2.148239,-4.54569 4.798225,-4.54569 2.649986,0 4.798224,2.03518 4.798224,4.54569 z"
         sodipodi:ry="4.5456862"
         sodipodi:rx="4.7982244"
         sodipodi:cy="785.23883"
         sodipodi:cx="27.02158"
         id="path3850-90-9"
         style="fill:none;stroke:#000000;stroke-width:0.32208613;stroke-miterlimit:4;stroke-opacity:1;stroke-dasharray:none"
         sodipodi:type="arc" />
      <path
         transform="matrix(0,1.0707701,-1.1302573,0,1369.6599,571.01998)"
         d="m 31.819804,785.23883 c 0,2.51051 -2.148238,4.54569 -4.798224,4.54569 -2.649986,0 -4.798225,-2.03518 -4.798225,-4.54569 0,-2.51051 2.148239,-4.54569 4.798225,-4.54569 2.649986,0 4.798224,2.03518 4.798224,4.54569 z"
         sodipodi:ry="4.5456862"
         sodipodi:rx="4.7982244"
         sodipodi:cy="785.23883"
         sodipodi:cx="27.02158"
         id="path3850-9-4-4"
         style="fill:none;stroke:#000000;stroke-width:0.32208613;stroke-miterlimit:4;stroke-opacity:1;stroke-dasharray:none"
         sodipodi:type="arc" />
      <rect
         transform="scale(-1,-1)"
         y="-615.72156"
         x="-451.84271"
         height="389.40945"
         width="17.362206"
         id="rect3848-6-4-8"
         style="fill:none;stroke:#000000;stroke-width:0.35433072;stroke-miterlimit:4;stroke-opacity:1;stroke-dasharray:none" />
      <path
         transform="matrix(0,1.0707701,-1.1302573,0,1330.6835,213.14598)"
         d="m 31.819804,785.23883 c 0,2.51051 -2.148238,4.54569 -4.798224,4.54569 -2.649986,0 -4.798225,-2.03518 -4.798225,-4.54569 0,-2.51051 2.148239,-4.54569 4.798225,-4.54569 2.649986,0 4.798224,2.03518 4.798224,4.54569 z"
         sodipodi:ry="4.5456862"
         sodipodi:rx="4.7982244"
         sodipodi:cy="785.23883"
         sodipodi:cx="27.02158"
         id="path3850-99-8-5"
         style="fill:none;stroke:#000000;stroke-width:0.32208613;stroke-miterlimit:4;stroke-opacity:1;stroke-dasharray:none"
         sodipodi:type="arc" />
      <path
         transform="matrix(0,1.0707701,-1.1302573,0,1330.6835,571.01998)"
         d="m 31.819804,785.23883 c 0,2.51051 -2.148238,4.54569 -4.798224,4.54569 -2.649986,0 -4.798225,-2.03518 -4.798225,-4.54569 0,-2.51051 2.148239,-4.54569 4.798225,-4.54569 2.649986,0 4.798224,2.03518 4.798224,4.54569 z"
         sodipodi:ry="4.5456862"
         sodipodi:rx="4.7982244"
         sodipodi:cy="785.23883"
         sodipodi:cx="27.02158"
         id="path3850-9-8-2-2"
         style="fill:none;stroke:#000000;stroke-width:0.32208613;stroke-miterlimit:4;stroke-opacity:1;stroke-dasharray:none"
         sodipodi:type="arc" />
      <rect
         transform="scale(-1,-1)"
         y="-1015.742"
         x="-470.61615"
         height="389.40945"
         width="17.362206"
         id="rect3848-2-1"
         style="fill:none;stroke:#000000;stroke-width:0.35433072;stroke-miterlimit:4;stroke-opacity:1;stroke-dasharray:none" />
      <path
         transform="matrix(0,1.0707701,-1.1302573,0,1349.4569,613.16639)"
         d="m 31.819804,785.23883 c 0,2.51051 -2.148238,4.54569 -4.798224,4.54569 -2.649986,0 -4.798225,-2.03518 -4.798225,-4.54569 0,-2.51051 2.148239,-4.54569 4.798225,-4.54569 2.649986,0 4.798224,2.03518 4.798224,4.54569 z"
         sodipodi:ry="4.5456862"
         sodipodi:rx="4.7982244"
         sodipodi:cy="785.23883"
         sodipodi:cx="27.02158"
         id="path3850-90-90"
         style="fill:none;stroke:#000000;stroke-width:0.32208613;stroke-miterlimit:4;stroke-opacity:1;stroke-dasharray:none"
         sodipodi:type="arc" />
      <path
         transform="matrix(0,1.0707701,-1.1302573,0,1349.4569,971.04039)"
         d="m 31.819804,785.23883 c 0,2.51051 -2.148238,4.54569 -4.798224,4.54569 -2.649986,0 -4.798225,-2.03518 -4.798225,-4.54569 0,-2.51051 2.148239,-4.54569 4.798225,-4.54569 2.649986,0 4.798224,2.03518 4.798224,4.54569 z"
         sodipodi:ry="4.5456862"
         sodipodi:rx="4.7982244"
         sodipodi:cy="785.23883"
         sodipodi:cx="27.02158"
         id="path3850-9-4-2"
         style="fill:none;stroke:#000000;stroke-width:0.32208613;stroke-miterlimit:4;stroke-opacity:1;stroke-dasharray:none"
         sodipodi:type="arc" />
      <rect
         transform="scale(-1,-1)"
         y="-1015.742"
         x="-431.63968"
         height="389.40945"
         width="17.362206"
         id="rect3848-6-4-0"
         style="fill:none;stroke:#000000;stroke-width:0.35433072;stroke-miterlimit:4;stroke-opacity:1;stroke-dasharray:none" />
      <path
         transform="matrix(0,1.0707701,-1.1302573,0,1310.4805,613.16639)"
         d="m 31.819804,785.23883 c 0,2.51051 -2.148238,4.54569 -4.798224,4.54569 -2.649986,0 -4.798225,-2.03518 -4.798225,-4.54569 0,-2.51051 2.148239,-4.54569 4.798225,-4.54569 2.649986,0 4.798224,2.03518 4.798224,4.54569 z"
         sodipodi:ry="4.5456862"
         sodipodi:rx="4.7982244"
         sodipodi:cy="785.23883"
         sodipodi:cx="27.02158"
         id="path3850-99-8-4"
         style="fill:none;stroke:#000000;stroke-width:0.32208613;stroke-miterlimit:4;stroke-opacity:1;stroke-dasharray:none"
         sodipodi:type="arc" />
      <path
         transform="matrix(0,1.0707701,-1.1302573,0,1310.4805,971.04039)"
         d="m 31.819804,785.23883 c 0,2.51051 -2.148238,4.54569 -4.798224,4.54569 -2.649986,0 -4.798225,-2.03518 -4.798225,-4.54569 0,-2.51051 2.148239,-4.54569 4.798225,-4.54569 2.649986,0 4.798224,2.03518 4.798224,4.54569 z"
         sodipodi:ry="4.5456862"
         sodipodi:rx="4.7982244"
         sodipodi:cy="785.23883"
         sodipodi:cx="27.02158"
         id="path3850-9-8-2-21"
         style="fill:none;stroke:#000000;stroke-width:0.32208613;stroke-miterlimit:4;stroke-opacity:1;stroke-dasharray:none"
         sodipodi:type="arc" />
      <rect
         transform="scale(-1,-1)"
         y="-1015.742"
         x="-489.80902"
         height="389.40945"
         width="17.362206"
         id="rect3848-2-6"
         style="fill:none;stroke:#000000;stroke-width:0.35433072;stroke-miterlimit:4;stroke-opacity:1;stroke-dasharray:none" />
      <path
         transform="matrix(0,1.0707701,-1.1302573,0,1368.6498,613.16639)"
         d="m 31.819804,785.23883 c 0,2.51051 -2.148238,4.54569 -4.798224,4.54569 -2.649986,0 -4.798225,-2.03518 -4.798225,-4.54569 0,-2.51051 2.148239,-4.54569 4.798225,-4.54569 2.649986,0 4.798224,2.03518 4.798224,4.54569 z"
         sodipodi:ry="4.5456862"
         sodipodi:rx="4.7982244"
         sodipodi:cy="785.23883"
         sodipodi:cx="27.02158"
         id="path3850-90-2"
         style="fill:none;stroke:#000000;stroke-width:0.32208613;stroke-miterlimit:4;stroke-opacity:1;stroke-dasharray:none"
         sodipodi:type="arc" />
      <path
         transform="matrix(0,1.0707701,-1.1302573,0,1368.6498,971.04039)"
         d="m 31.819804,785.23883 c 0,2.51051 -2.148238,4.54569 -4.798224,4.54569 -2.649986,0 -4.798225,-2.03518 -4.798225,-4.54569 0,-2.51051 2.148239,-4.54569 4.798225,-4.54569 2.649986,0 4.798224,2.03518 4.798224,4.54569 z"
         sodipodi:ry="4.5456862"
         sodipodi:rx="4.7982244"
         sodipodi:cy="785.23883"
         sodipodi:cx="27.02158"
         id="path3850-9-4-0"
         style="fill:none;stroke:#000000;stroke-width:0.32208613;stroke-miterlimit:4;stroke-opacity:1;stroke-dasharray:none"
         sodipodi:type="arc" />
      <rect
         transform="scale(-1,-1)"
         y="-1015.742"
         x="-450.83255"
         height="389.40945"
         width="17.362206"
         id="rect3848-6-4-83"
         style="fill:none;stroke:#000000;stroke-width:0.35433072;stroke-miterlimit:4;stroke-opacity:1;stroke-dasharray:none" />
      <path
         transform="matrix(0,1.0707701,-1.1302573,0,1329.6734,613.16639)"
         d="m 31.819804,785.23883 c 0,2.51051 -2.148238,4.54569 -4.798224,4.54569 -2.649986,0 -4.798225,-2.03518 -4.798225,-4.54569 0,-2.51051 2.148239,-4.54569 4.798225,-4.54569 2.649986,0 4.798224,2.03518 4.798224,4.54569 z"
         sodipodi:ry="4.5456862"
         sodipodi:rx="4.7982244"
         sodipodi:cy="785.23883"
         sodipodi:cx="27.02158"
         id="path3850-99-8-6"
         style="fill:none;stroke:#000000;stroke-width:0.32208613;stroke-miterlimit:4;stroke-opacity:1;stroke-dasharray:none"
         sodipodi:type="arc" />
      <path
         transform="matrix(0,1.0707701,-1.1302573,0,1329.6734,971.04039)"
         d="m 31.819804,785.23883 c 0,2.51051 -2.148238,4.54569 -4.798224,4.54569 -2.649986,0 -4.798225,-2.03518 -4.798225,-4.54569 0,-2.51051 2.148239,-4.54569 4.798225,-4.54569 2.649986,0 4.798224,2.03518 4.798224,4.54569 z"
         sodipodi:ry="4.5456862"
         sodipodi:rx="4.7982244"
         sodipodi:cy="785.23883"
         sodipodi:cx="27.02158"
         id="path3850-9-8-2-210"
         style="fill:none;stroke:#000000;stroke-width:0.32208613;stroke-miterlimit:4;stroke-opacity:1;stroke-dasharray:none"
         sodipodi:type="arc" />
      <rect
         transform="scale(-1,-1)"
         y="-616.73175"
         x="-511.98962"
         height="389.40945"
         width="17.362206"
         id="rect3848-2-5"
         style="fill:none;stroke:#000000;stroke-width:0.35433072;stroke-miterlimit:4;stroke-opacity:1;stroke-dasharray:none" />
      <path
         transform="matrix(0,1.0707701,-1.1302573,0,1390.8303,214.15614)"
         d="m 31.819804,785.23883 c 0,2.51051 -2.148238,4.54569 -4.798224,4.54569 -2.649986,0 -4.798225,-2.03518 -4.798225,-4.54569 0,-2.51051 2.148239,-4.54569 4.798225,-4.54569 2.649986,0 4.798224,2.03518 4.798224,4.54569 z"
         sodipodi:ry="4.5456862"
         sodipodi:rx="4.7982244"
         sodipodi:cy="785.23883"
         sodipodi:cx="27.02158"
         id="path3850-90-3"
         style="fill:none;stroke:#000000;stroke-width:0.32208613;stroke-miterlimit:4;stroke-opacity:1;stroke-dasharray:none"
         sodipodi:type="arc" />
      <path
         transform="matrix(0,1.0707701,-1.1302573,0,1390.8303,572.03013)"
         d="m 31.819804,785.23883 c 0,2.51051 -2.148238,4.54569 -4.798224,4.54569 -2.649986,0 -4.798225,-2.03518 -4.798225,-4.54569 0,-2.51051 2.148239,-4.54569 4.798225,-4.54569 2.649986,0 4.798224,2.03518 4.798224,4.54569 z"
         sodipodi:ry="4.5456862"
         sodipodi:rx="4.7982244"
         sodipodi:cy="785.23883"
         sodipodi:cx="27.02158"
         id="path3850-9-4-47"
         style="fill:none;stroke:#000000;stroke-width:0.32208613;stroke-miterlimit:4;stroke-opacity:1;stroke-dasharray:none"
         sodipodi:type="arc" />
      <rect
         transform="scale(-1,-1)"
         y="-616.73175"
         x="-531.68762"
         height="389.40945"
         width="17.362206"
         id="rect3848-2-0-2"
         style="fill:none;stroke:#000000;stroke-width:0.35433072;stroke-miterlimit:4;stroke-opacity:1;stroke-dasharray:none" />
      <path
         transform="matrix(0,1.0707701,-1.1302573,0,1410.5283,214.15616)"
         d="m 31.819804,785.23883 c 0,2.51051 -2.148238,4.54569 -4.798224,4.54569 -2.649986,0 -4.798225,-2.03518 -4.798225,-4.54569 0,-2.51051 2.148239,-4.54569 4.798225,-4.54569 2.649986,0 4.798224,2.03518 4.798224,4.54569 z"
         sodipodi:ry="4.5456862"
         sodipodi:rx="4.7982244"
         sodipodi:cy="785.23883"
         sodipodi:cx="27.02158"
         id="path3850-90-9-2"
         style="fill:none;stroke:#000000;stroke-width:0.32208613;stroke-miterlimit:4;stroke-opacity:1;stroke-dasharray:none"
         sodipodi:type="arc" />
      <path
         transform="matrix(0,1.0707701,-1.1302573,0,1410.5283,572.03016)"
         d="m 31.819804,785.23883 c 0,2.51051 -2.148238,4.54569 -4.798224,4.54569 -2.649986,0 -4.798225,-2.03518 -4.798225,-4.54569 0,-2.51051 2.148239,-4.54569 4.798225,-4.54569 2.649986,0 4.798224,2.03518 4.798224,4.54569 z"
         sodipodi:ry="4.5456862"
         sodipodi:rx="4.7982244"
         sodipodi:cy="785.23883"
         sodipodi:cx="27.02158"
         id="path3850-9-4-4-7"
         style="fill:none;stroke:#000000;stroke-width:0.32208613;stroke-miterlimit:4;stroke-opacity:1;stroke-dasharray:none"
         sodipodi:type="arc" />
      <rect
         transform="scale(-1,-1)"
         y="-1014.7319"
         x="-510.97946"
         height="389.40945"
         width="17.362206"
         id="rect3848-2-18"
         style="fill:none;stroke:#000000;stroke-width:0.35433072;stroke-miterlimit:4;stroke-opacity:1;stroke-dasharray:none" />
      <path
         transform="matrix(0,1.0707701,-1.1302573,0,1389.8202,612.15624)"
         d="m 31.819804,785.23883 c 0,2.51051 -2.148238,4.54569 -4.798224,4.54569 -2.649986,0 -4.798225,-2.03518 -4.798225,-4.54569 0,-2.51051 2.148239,-4.54569 4.798225,-4.54569 2.649986,0 4.798224,2.03518 4.798224,4.54569 z"
         sodipodi:ry="4.5456862"
         sodipodi:rx="4.7982244"
         sodipodi:cy="785.23883"
         sodipodi:cx="27.02158"
         id="path3850-90-8"
         style="fill:none;stroke:#000000;stroke-width:0.32208613;stroke-miterlimit:4;stroke-opacity:1;stroke-dasharray:none"
         sodipodi:type="arc" />
      <path
         transform="matrix(0,1.0707701,-1.1302573,0,1389.8202,970.03023)"
         d="m 31.819804,785.23883 c 0,2.51051 -2.148238,4.54569 -4.798224,4.54569 -2.649986,0 -4.798225,-2.03518 -4.798225,-4.54569 0,-2.51051 2.148239,-4.54569 4.798225,-4.54569 2.649986,0 4.798224,2.03518 4.798224,4.54569 z"
         sodipodi:ry="4.5456862"
         sodipodi:rx="4.7982244"
         sodipodi:cy="785.23883"
         sodipodi:cx="27.02158"
         id="path3850-9-4-9"
         style="fill:none;stroke:#000000;stroke-width:0.32208613;stroke-miterlimit:4;stroke-opacity:1;stroke-dasharray:none"
         sodipodi:type="arc" />
      <rect
         transform="scale(-1,-1)"
         y="-1014.7319"
         x="-530.67743"
         height="389.40945"
         width="17.362206"
         id="rect3848-2-0-0"
         style="fill:none;stroke:#000000;stroke-width:0.35433072;stroke-miterlimit:4;stroke-opacity:1;stroke-dasharray:none" />
      <path
         transform="matrix(0,1.0707701,-1.1302573,0,1409.5182,612.15626)"
         d="m 31.819804,785.23883 c 0,2.51051 -2.148238,4.54569 -4.798224,4.54569 -2.649986,0 -4.798225,-2.03518 -4.798225,-4.54569 0,-2.51051 2.148239,-4.54569 4.798225,-4.54569 2.649986,0 4.798224,2.03518 4.798224,4.54569 z"
         sodipodi:ry="4.5456862"
         sodipodi:rx="4.7982244"
         sodipodi:cy="785.23883"
         sodipodi:cx="27.02158"
         id="path3850-90-9-7"
         style="fill:none;stroke:#000000;stroke-width:0.32208613;stroke-miterlimit:4;stroke-opacity:1;stroke-dasharray:none"
         sodipodi:type="arc" />
      <path
         transform="matrix(0,1.0707701,-1.1302573,0,1409.5182,970.03026)"
         d="m 31.819804,785.23883 c 0,2.51051 -2.148238,4.54569 -4.798224,4.54569 -2.649986,0 -4.798225,-2.03518 -4.798225,-4.54569 0,-2.51051 2.148239,-4.54569 4.798225,-4.54569 2.649986,0 4.798224,2.03518 4.798224,4.54569 z"
         sodipodi:ry="4.5456862"
         sodipodi:rx="4.7982244"
         sodipodi:cy="785.23883"
         sodipodi:cx="27.02158"
         id="path3850-9-4-4-0"
         style="fill:none;stroke:#000000;stroke-width:0.32208613;stroke-miterlimit:4;stroke-opacity:1;stroke-dasharray:none"
         sodipodi:type="arc" />
      <path
         inkscape:connector-curvature="0"
         id="path6154"
         d="m 142.93137,563.63724 c -17.98263,-3.63672 -35.69782,-17.62068 -44.325486,-34.98949 -3.56397,-7.17481 -5.9799,-16.61251 -5.9799,-23.36011 l 0,-1.73305 10.356996,0 10.35699,0 0,2.27315 c 0,1.25023 0.53319,4.38022 1.18487,6.95553 4.56875,18.05487 21.64933,31.56108 39.97079,31.60628 11.04015,0.0272 23.17889,-6.5672 28.54274,-15.506 4.84359,-8.07182 4.38524,-19.91732 -1.0837,-28.00633 -5.31657,-7.86364 -15.70561,-12.91385 -28.22244,-13.71921 l -5.47441,-0.35224 0,-10.20278 0,-10.20277 4.54729,-0.42622 c 18.70216,-1.75293 27.82075,-10.47907 29.48223,-28.21339 0.92681,-9.89267 -3.4552,-18.48659 -12.38511,-24.28947 -10.49217,-6.81808 -23.35477,-6.06887 -33.49866,1.9512 -4.62683,3.6581 -7.30743,7.95928 -8.53404,13.69329 l -0.34824,1.62789 -10.0498,0 -10.0498,0 0,-2.83543 c 0,-15.419 15.53562,-32.77298 34.14896,-38.14593 6.77788,-1.95651 19.307,-1.93421 25.61074,0.0456 16.27009,5.1099 29.43746,18.43479 33.83635,34.24111 1.75402,6.30263 1.74989,17.3587 -0.009,24.00889 -1.07728,4.07319 -3.78765,10.30188 -6.08134,13.97546 -0.72854,1.16686 -0.63948,1.41676 0.97303,2.73031 6.14781,5.00796 15.61862,3.97153 20.63567,-2.25826 3.43318,-4.26306 4.86251,-7.40512 10.13991,-22.29038 7.28122,-20.53711 8.87133,-24.50411 11.27239,-28.12228 4.60276,-6.93589 12.78227,-12.6074 20.98121,-14.54796 4.56322,-1.08004 14.8278,-0.94018 19.53032,0.26611 11.75391,3.01511 20.56398,10.89475 27.22458,24.34936 7.2869,14.71974 10.65793,32.13507 10.64756,55.00709 -0.007,16.15393 -1.72638,28.4586 -5.64933,40.43696 -4.26759,13.03071 -10.11332,23.23882 -17.37862,30.34743 -5.15837,5.04713 -9.28286,7.6843 -15.53391,9.93228 -3.88954,1.39875 -5.2022,1.56363 -12.62641,1.58599 -6.9691,0.021 -8.95253,-0.18488 -12.48314,-1.29568 -7.5953,-2.38963 -16.12269,-9.14626 -22.24043,-17.62209 -3.22866,-4.47315 -6.63317,-10.9674 -6.04163,-11.52469 0.2865,-0.26992 4.38258,-2.5032 9.10241,-4.96285 l 8.5815,-4.47209 2.32322,4.80912 c 4.59509,9.51202 11.66133,14.67062 20.09577,14.67062 12.29978,0 21.48199,-9.19604 26.91373,-26.95427 3.88637,-12.70589 5.12746,-23.34841 4.65302,-39.90047 -0.98497,-34.36282 -11.24488,-55.08901 -27.27027,-55.08901 -7.00551,0 -13.21826,4.25035 -17.14898,11.7322 -1.17489,2.23631 -5.21276,12.55541 -8.97305,22.93133 -3.76029,10.37592 -7.26501,19.54106 -7.78827,20.36698 -4.64715,7.33509 -10.43799,12.18338 -17.53411,14.68013 -5.93368,2.08774 -14.77108,2.23774 -18.92016,0.32112 l -2.81296,-1.29941 1.74314,2.18735 c 11.65086,14.6198 12.59035,35.71255 2.29903,51.61601 -3.38491,5.23081 -11.02991,12.75189 -16.74835,16.47688 -5.49172,3.57731 -12.32198,6.36029 -18.52216,7.54685 -5.36277,1.0263 -16.24271,1.0006 -21.4408,-0.0506 z m 62.96564,-192.02771 c -4.72962,-1.16335 -11.83723,-4.36945 -16.05981,-7.24427 -1.54805,-1.05394 -4.77455,-3.79823 -7.16999,-6.09841 -9.36,-8.98777 -14.02199,-18.20812 -15.20921,-30.08039 l -0.39957,-3.99573 10.1032,0 10.1032,0 0.34115,2.21985 c 1.14998,7.48278 4.70452,13.73883 10.59114,18.64059 11.76882,9.79983 25.82979,10.40556 37.78123,1.62757 7.0334,-5.16582 11.37454,-12.09705 12.13815,-19.38022 l 0.32585,-3.10779 10.27418,0 10.2742,0 0,2.3928 c 0,7.89108 -4.50966,19.22085 -10.47172,26.30843 -7.56698,8.9955 -18.72998,16.26106 -28.63168,18.63524 -6.47615,1.55282 -17.85326,1.59187 -23.99032,0.0823 z m 7.16597,-37.69254 c -4.67087,-2.42485 -7.39785,-6.77215 -7.39785,-11.79355 0,-4.22758 1.01067,-6.58113 3.97497,-9.25649 6.08236,-5.48951 14.29787,-4.28485 19.29693,2.82954 1.4157,2.01474 1.70324,3.02067 1.70324,5.9586 0,5.61666 -3.0621,10.22366 -8.23699,12.39269 -2.55048,1.06902 -7.1533,1.00457 -9.3403,-0.13079 z"
         style="fill:none;stroke:#00ff00;stroke-width:1;stroke-opacity:1" />
      <path
         inkscape:connector-curvature="0"
         id="path6154-8"
         d="m 142.93136,946.20402 c -17.98263,-3.63672 -35.69782,-17.62068 -44.325476,-34.98949 -3.56397,-7.17481 -5.9799,-16.61251 -5.9799,-23.36011 l 0,-1.73305 10.356986,0 10.35699,0 0,2.27315 c 0,1.25023 0.53319,4.38022 1.18487,6.95553 4.56875,18.05487 21.64933,31.56108 39.97079,31.60628 11.04015,0.0272 23.17889,-6.5672 28.54274,-15.506 4.84359,-8.07182 4.38524,-19.91732 -1.0837,-28.00633 -5.31657,-7.86364 -15.70561,-12.91385 -28.22244,-13.71921 l -5.47441,-0.35224 0,-10.20278 0,-10.20277 4.54729,-0.42622 c 18.70216,-1.75293 27.82075,-10.47907 29.48223,-28.21339 0.92681,-9.89267 -3.4552,-18.48659 -12.38511,-24.28947 -10.49217,-6.81808 -23.35477,-6.06887 -33.49866,1.9512 -4.62683,3.6581 -7.30743,7.95928 -8.53404,13.69329 l -0.34824,1.62789 -10.0498,0 -10.0498,0 0,-2.83543 c 0,-15.419 15.53562,-32.77298 34.14896,-38.14593 6.77788,-1.95651 19.307,-1.93421 25.61074,0.0456 16.27009,5.1099 29.43746,18.43479 33.83635,34.24111 1.75402,6.30263 1.74989,17.3587 -0.009,24.00889 -1.07728,4.07319 -3.78765,10.30188 -6.08134,13.97546 -0.72854,1.16686 -0.63948,1.41676 0.97303,2.73031 6.14781,5.00796 15.61862,3.97153 20.63567,-2.25826 3.43318,-4.26306 4.86251,-7.40512 10.13991,-22.29038 7.28122,-20.53711 8.87133,-24.50411 11.27239,-28.12228 4.60276,-6.93589 12.78227,-12.6074 20.98121,-14.54796 4.56322,-1.08004 14.8278,-0.94018 19.53032,0.26611 11.75391,3.01511 20.56398,10.89475 27.22458,24.34936 7.2869,14.71974 10.65793,32.13507 10.64756,55.00709 -0.007,16.15393 -1.72638,28.4586 -5.64933,40.43696 -4.26759,13.03071 -10.11332,23.23882 -17.37862,30.34743 -5.15837,5.04713 -9.28286,7.6843 -15.53391,9.93228 -3.88954,1.39875 -5.2022,1.56363 -12.62641,1.58599 -6.9691,0.021 -8.95253,-0.18488 -12.48314,-1.29568 -7.5953,-2.38963 -16.12269,-9.14626 -22.24043,-17.62209 -3.22866,-4.47315 -6.63317,-10.9674 -6.04163,-11.52469 0.2865,-0.26992 4.38258,-2.5032 9.10241,-4.96285 l 8.5815,-4.47209 2.32322,4.80912 c 4.59509,9.51202 11.66133,14.67062 20.09577,14.67062 12.29978,0 21.48199,-9.19604 26.91373,-26.95427 3.88637,-12.70589 5.12746,-23.34841 4.65302,-39.90047 -0.98497,-34.36282 -11.24488,-55.08901 -27.27027,-55.08901 -7.00551,0 -13.21826,4.25035 -17.14898,11.7322 -1.17489,2.23631 -5.21276,12.55541 -8.97305,22.93133 -3.76029,10.37592 -7.26501,19.54106 -7.78827,20.36698 -4.64715,7.33509 -10.43799,12.18338 -17.53411,14.68013 -5.93368,2.08774 -14.77108,2.23774 -18.92016,0.32112 l -2.81296,-1.29941 1.74314,2.18735 c 11.65086,14.6198 12.59035,35.71255 2.29903,51.61601 -3.38491,5.23081 -11.02991,12.75189 -16.74835,16.47688 -5.49172,3.57731 -12.32198,6.36029 -18.52216,7.54685 -5.36277,1.0263 -16.24271,1.0006 -21.4408,-0.0506 z M 205.897,754.17631 c -4.72962,-1.16335 -11.83723,-4.36945 -16.05981,-7.24427 -1.54805,-1.05394 -4.77455,-3.79823 -7.16999,-6.09841 -9.36,-8.98777 -14.02199,-18.20812 -15.20921,-30.08039 l -0.39957,-3.99573 10.1032,0 10.1032,0 0.34115,2.21985 c 1.14998,7.48278 4.70452,13.73883 10.59114,18.64059 11.76882,9.79983 25.82979,10.40556 37.78123,1.62757 7.0334,-5.16582 11.37454,-12.09705 12.13815,-19.38022 l 0.32585,-3.10779 10.27418,0 10.2742,0 0,2.3928 c 0,7.89108 -4.50966,19.22085 -10.47172,26.30843 -7.56698,8.9955 -18.72998,16.26106 -28.63168,18.63524 -6.47615,1.55282 -17.85326,1.59187 -23.99032,0.0823 z m 7.16597,-37.69254 c -4.67087,-2.42485 -7.39785,-6.77215 -7.39785,-11.79355 0,-4.22758 1.01067,-6.58113 3.97497,-9.25649 6.08236,-5.48951 14.29787,-4.28485 19.29693,2.82954 1.4157,2.01474 1.70324,3.02067 1.70324,5.9586 0,5.61666 -3.0621,10.22366 -8.23699,12.39269 -2.55048,1.06902 -7.1533,1.00457 -9.3403,-0.13079 z"
         style="fill:none;stroke:#00ff00;stroke-width:1;stroke-opacity:1" />
    </g>
  </g>
</svg>
