<?xml version="1.0" encoding="UTF-8" standalone="no"?>
<!-- Created with Inkscape (http://www.inkscape.org/) -->

<svg
   xmlns:dc="http://purl.org/dc/elements/1.1/"
   xmlns:cc="http://creativecommons.org/ns#"
   xmlns:rdf="http://www.w3.org/1999/02/22-rdf-syntax-ns#"
   xmlns:svg="http://www.w3.org/2000/svg"
   xmlns="http://www.w3.org/2000/svg"
   xmlns:sodipodi="http://sodipodi.sourceforge.net/DTD/sodipodi-0.dtd"
   xmlns:inkscape="http://www.inkscape.org/namespaces/inkscape"
   width="1062.9921"
   height="708.66138"
   id="svg3099"
   version="1.1"
   inkscape:version="0.48.4 r9939"
   sodipodi:docname="Shield Generator Emitters Mk1.svg">
  <defs
     id="defs3101" />
  <sodipodi:namedview
     id="base"
     pagecolor="#ffffff"
     bordercolor="#666666"
     borderopacity="1.0"
     inkscape:pageopacity="0.0"
     inkscape:pageshadow="2"
     inkscape:zoom="0.5"
     inkscape:cx="537.91429"
     inkscape:cy="446.05689"
     inkscape:document-units="mm"
     inkscape:current-layer="layer1"
     showgrid="false"
     units="mm"
     inkscape:window-width="1920"
     inkscape:window-height="1031"
     inkscape:window-x="0"
     inkscape:window-y="25"
     inkscape:window-maximized="1" />
  <metadata
     id="metadata3104">
    <rdf:RDF>
      <cc:Work
         rdf:about="">
        <dc:format>image/svg+xml</dc:format>
        <dc:type
           rdf:resource="http://purl.org/dc/dcmitype/StillImage" />
        <dc:title></dc:title>
      </cc:Work>
    </rdf:RDF>
  </metadata>
  <g
     inkscape:label="Layer 1"
     inkscape:groupmode="layer"
     id="layer1"
     transform="translate(0,-343.70077)">
    <path
       style="fill:none;stroke:#000000;stroke-width:0.17223334;stroke-miterlimit:4;stroke-opacity:1"
       d="m 247.1875,17.78125 c -7.08187,0.004 -215.184441,51.91289 -211.625,52.96875 0.0069,0.002 0.08369,-0.002 0.09375,0 l 17.703125,70.875 8.851562,35.4375 8.655205,17.72014 0.196358,17.71736 24.6875,0 0,-8.71875 14.0625,0 0,8.71875 44.375,0 0,-8.71875 14.09375,0 0,8.71875 44.375,0 0,-8.71875 14.09375,0 0,8.71875 44.375,0 0,-8.71875 14.09375,0 0,8.71875 44.375,0 0,-8.71875 14.0625,0 0,8.71875 44.40625,0 0,-8.71875 14.0625,0 0,8.71875 23.28125,0 0.16619,-17.71875 8.66974,-17.71875 8.83594,-35.4375 17.67188,-70.875 0,-0.15625 C 464.27241,69.5342 254.26937,17.77758 247.1875,17.78125 z"
       transform="translate(0,343.70077)"
       id="path3107"
       inkscape:connector-curvature="0"
       sodipodi:nodetypes="cccccccccccccccccccccccccccccccccccccc" />
    <path
       style="fill:none;stroke:#000000;stroke-width:0.17223334;stroke-miterlimit:4;stroke-opacity:1"
       d="m 656.03191,558.72152 c -7.08187,-0.004 -215.18444,-51.91289 -211.625,-52.96875 0.007,-0.002 0.0837,0.002 0.0937,0 l 17.70313,-70.875 8.85156,-35.4375 8.6552,-17.72014 0.19636,-17.71736 24.6875,0 0,8.71875 14.0625,0 0,-8.71875 44.375,0 0,8.71875 14.09375,0 0,-8.71875 44.375,0 0,8.71875 14.09375,0 0,-8.71875 44.375,0 0,8.71875 14.09375,0 0,-8.71875 44.375,0 0,8.71875 14.0625,0 0,-8.71875 44.40625,0 0,8.71875 14.0625,0 0,-8.71875 23.28125,0 0.16619,17.71875 8.66974,17.71875 8.83594,35.4375 17.67192,70.875 0,0.15625 c 3.5224,1.05955 -206.48067,52.81617 -213.56254,52.8125 z"
       id="path3107-9"
       inkscape:connector-curvature="0"
       sodipodi:nodetypes="cccccccccccccccccccccccccccccccccccccc" />
    <path
       style="fill:none;stroke:#000000;stroke-width:0.17223334;stroke-miterlimit:4;stroke-opacity:1"
       d="m 252.60971,567.7424 c -7.08187,0.004 -215.18444,51.91289 -211.625,52.96875 0.007,0.002 0.0837,-0.002 0.0937,0 l 17.70313,70.875 8.85156,35.4375 8.6552,17.72014 0.19636,17.71736 24.6875,0 0,-8.71875 14.0625,0 0,8.71875 44.375,0 0,-8.71875 14.09375,0 0,8.71875 44.375,0 0,-8.71875 14.09375,0 0,8.71875 44.375,0 0,-8.71875 14.09375,0 0,8.71875 44.375,0 0,-8.71875 14.0625,0 0,8.71875 44.40625,0 0,-8.71875 14.0625,0 0,8.71875 23.28125,0 0.16619,-17.71875 8.66974,-17.71875 8.83594,-35.4375 17.67188,-70.875 0,-0.15625 c 3.52241,-1.05955 -206.48063,-52.81617 -213.5625,-52.8125 z"
       id="path3107-3"
       inkscape:connector-curvature="0"
       sodipodi:nodetypes="cccccccccccccccccccccccccccccccccccccc" />
    <path
       style="fill:none;stroke:#000000;stroke-width:0.17223334;stroke-miterlimit:4;stroke-opacity:1"
       d="m 661.45412,764.9819 c -7.08187,-0.004 -215.18444,-51.91289 -211.625,-52.96875 0.007,-0.002 0.0837,0.002 0.0937,0 l 17.70313,-70.875 8.85156,-35.4375 8.6552,-17.72014 0.19636,-17.71736 24.6875,0 0,8.71875 14.0625,0 0,-8.71875 44.375,0 0,8.71875 14.09375,0 0,-8.71875 44.375,0 0,8.71875 14.09375,0 0,-8.71875 44.375,0 0,8.71875 14.09375,0 0,-8.71875 44.375,0 0,8.71875 14.0625,0 0,-8.71875 44.40625,0 0,8.71875 14.0625,0 0,-8.71875 23.28125,0 0.16619,17.71875 8.66974,17.71875 8.83594,35.4375 17.67192,70.875 0,0.15625 c 3.5224,1.05955 -206.48067,52.81617 -213.56254,52.8125 z"
       id="path3107-9-7"
       inkscape:connector-curvature="0"
       sodipodi:nodetypes="cccccccccccccccccccccccccccccccccccccc" />
    <path
       style="fill:none;stroke:#000000;stroke-width:0.17223334;stroke-miterlimit:4;stroke-opacity:1"
       d="m 248.60971,777.7424 c -7.08187,0.004 -215.184439,51.91289 -211.624998,52.96875 0.0069,0.002 0.08369,-0.002 0.09375,0 l 17.703124,70.875 8.851562,35.4375 8.655205,17.72014 0.196358,17.71736 24.6875,0 0,-8.71875 14.062499,0 0,8.71875 44.375,0 0,-8.71875 14.09375,0 0,8.71875 44.375,0 0,-8.71875 14.09375,0 0,8.71875 44.375,0 0,-8.71875 14.09375,0 0,8.71875 44.375,0 0,-8.71875 14.0625,0 0,8.71875 44.40625,0 0,-8.71875 14.0625,0 0,8.71875 23.28125,0 0.16619,-17.71875 8.66974,-17.71875 8.83594,-35.4375 17.67188,-70.875 0,-0.15625 c 3.52241,-1.05955 -206.48063,-52.81617 -213.5625,-52.8125 z"
       id="path3107-0"
       inkscape:connector-curvature="0"
       sodipodi:nodetypes="cccccccccccccccccccccccccccccccccccccc" />
    <path
       style="fill:none;stroke:#000000;stroke-width:0.17223334;stroke-miterlimit:4;stroke-opacity:1"
       d="m 657.45412,974.9819 c -7.08187,-0.004 -215.18444,-51.91289 -211.625,-52.96875 0.007,-0.002 0.0837,0.002 0.0937,0 l 17.70313,-70.875 8.85156,-35.4375 8.6552,-17.72014 0.19636,-17.71736 24.6875,0 0,8.71875 14.0625,0 0,-8.71875 44.375,0 0,8.71875 14.09375,0 0,-8.71875 44.375,0 0,8.71875 14.09375,0 0,-8.71875 44.375,0 0,8.71875 14.09375,0 0,-8.71875 44.375,0 0,8.71875 14.0625,0 0,-8.71875 44.40625,0 0,8.71875 14.0625,0 0,-8.71875 23.28125,0 0.16619,17.71875 8.66974,17.71875 8.83594,35.4375 17.67192,70.875 0,0.15625 c 3.5224,1.05955 -206.48067,52.81617 -213.56254,52.8125 z"
       id="path3107-9-2"
       inkscape:connector-curvature="0"
       sodipodi:nodetypes="cccccccccccccccccccccccccccccccccccccc" />
  </g>
</svg>
