<?xml version="1.0" encoding="UTF-8" standalone="no"?>
<!-- Created with Inkscape (http://www.inkscape.org/) -->

<svg
   xmlns:dc="http://purl.org/dc/elements/1.1/"
   xmlns:cc="http://creativecommons.org/ns#"
   xmlns:rdf="http://www.w3.org/1999/02/22-rdf-syntax-ns#"
   xmlns:svg="http://www.w3.org/2000/svg"
   xmlns="http://www.w3.org/2000/svg"
   xmlns:sodipodi="http://sodipodi.sourceforge.net/DTD/sodipodi-0.dtd"
   xmlns:inkscape="http://www.inkscape.org/namespaces/inkscape"
   width="1062.9921"
   height="885.82672"
   id="svg3099"
   version="1.1"
   inkscape:version="0.48.4 r9939"
   sodipodi:docname="Shield Generator Emitter x 6.svg">
  <defs
     id="defs3101" />
  <sodipodi:namedview
     id="base"
     pagecolor="#ffffff"
     bordercolor="#666666"
     borderopacity="1.0"
     inkscape:pageopacity="0.0"
     inkscape:pageshadow="2"
     inkscape:zoom="0.70710678"
     inkscape:cx="936.72251"
     inkscape:cy="446.05689"
     inkscape:document-units="mm"
     inkscape:current-layer="layer1"
     showgrid="false"
     units="mm"
     inkscape:window-width="1920"
     inkscape:window-height="1031"
     inkscape:window-x="0"
     inkscape:window-y="25"
     inkscape:window-maximized="1" />
  <metadata
     id="metadata3104">
    <rdf:RDF>
      <cc:Work
         rdf:about="">
        <dc:format>image/svg+xml</dc:format>
        <dc:type
           rdf:resource="http://purl.org/dc/dcmitype/StillImage" />
        <dc:title></dc:title>
      </cc:Work>
    </rdf:RDF>
  </metadata>
  <g
     inkscape:label="Layer 1"
     inkscape:groupmode="layer"
     id="layer1"
     transform="translate(0,-166.5354)">
    <path
       style="fill:none;stroke:#000000;stroke-width:0.17223334;stroke-miterlimit:4;stroke-opacity:1"
       d="m 211.51496,393.87331 c -0.004,-7.08187 -51.91289,-215.18444 -52.96875,-211.625 -0.002,0.007 0.002,0.0837 0,0.0937 l -70.875,17.70312 -35.4375,8.85156 -17.72014,8.65521 -17.71736,0.19636 0,24.6875 8.71875,0 0,14.0625 -8.71875,0 0,44.375 8.71875,0 0,14.09375 -8.71875,0 0,44.375 8.71875,0 0,14.09375 -8.71875,0 0,44.375 8.71875,0 0,14.09375 -8.71875,0 0,44.375 8.71875,0 0,14.0625 -8.71875,0 0,44.40625 8.71875,0 0,14.0625 -8.71875,0 0,23.28125 17.71875,0.16619 17.71875,8.66974 35.4375,8.83594 70.875,17.67188 0.15625,0 c 1.05955,3.52241 52.81617,-206.48063 52.8125,-213.5625 z"
       id="path3107"
       inkscape:connector-curvature="0"
       sodipodi:nodetypes="cccccccccccccccccccccccccccccccccccccc" />
    <path
       style="fill:none;stroke:#000000;stroke-width:0.17223334;stroke-miterlimit:4;stroke-opacity:1"
       d="m 823.0996,408.26188 c 0,-7.0819 51.9129,-215.1844 52.9687,-211.625 0,0.01 0,0.084 0,0.094 l 70.875,17.7031 35.4375,8.8516 17.7202,8.6552 17.7173,0.1964 0,24.6875 -8.7187,0 0,14.0625 8.7187,0 0,44.375 -8.7187,0 0,14.0937 8.7187,0 0,44.375 -8.7187,0 0,14.0938 8.7187,0 0,44.375 -8.7187,0 0,14.0937 8.7187,0 0,44.375 -8.7187,0 0,14.0625 8.7187,0 0,44.4063 -8.7187,0 0,14.0625 8.7187,0 0,23.2812 -17.7187,0.1662 -17.7188,8.6697 -35.4375,8.836 -70.875,17.6719 -0.1562,0 c -1.0596,3.5224 -52.8162,-206.4807 -52.8125,-213.5625 z"
       id="path3107-9"
       inkscape:connector-curvature="0"
       sodipodi:nodetypes="cccccccccccccccccccccccccccccccccccccc" />
    <path
       style="fill:none;stroke:#000000;stroke-width:0.17223334;stroke-miterlimit:4;stroke-opacity:1"
       d="m 218.2184,402.06984 c 0.004,7.08187 51.91289,215.18444 52.96875,211.625 0.002,-0.007 -0.002,-0.0837 0,-0.0937 l 70.875,-17.70313 35.4375,-8.85156 17.72014,-8.6552 17.71736,-0.19636 0,-24.6875 -8.71875,0 0,-14.0625 8.71875,0 0,-44.375 -8.71875,0 0,-14.09375 8.71875,0 0,-44.375 -8.71875,0 0,-14.09375 8.71875,0 0,-44.375 -8.71875,0 0,-14.09375 8.71875,0 0,-44.375 -8.71875,0 0,-14.0625 8.71875,0 0,-44.40625 -8.71875,0 0,-14.0625 8.71875,0 0,-23.28125 -17.71875,-0.16619 -17.71875,-8.66974 -35.4375,-8.83594 -70.875,-17.67188 -0.15625,0 c -1.05955,-3.52241 -52.81617,206.48063 -52.8125,213.5625 z"
       id="path3107-3"
       inkscape:connector-curvature="0"
       sodipodi:nodetypes="cccccccccccccccccccccccccccccccccccccc" />
    <path
       style="fill:none;stroke:#000000;stroke-width:0.17223334;stroke-miterlimit:4;stroke-opacity:1"
       d="m 440.35994,784.6896 c 7.0819,0 215.1844,51.9129 211.625,52.9687 -0.01,0 -0.084,0 -0.094,0 l -17.7032,70.875 -8.8515,35.4375 -8.6552,17.7202 -0.1964,17.71725 -24.6875,0 0,-8.71865 -14.0625,0 0,8.71865 -44.375,0 0,-8.71865 -14.0937,0 0,8.71865 -44.375,0 0,-8.71865 -14.0938,0 0,8.71865 -44.375,0 0,-8.71865 -14.0937,0 0,8.71865 -44.375,0 0,-8.71865 -14.0625,0 0,8.71865 -44.4063,0 0,-8.71865 -14.0625,0 0,8.71865 -23.2812,0 -0.1662,-17.71865 -8.6698,-17.7188 -8.8359,-35.4375 -17.6719,-70.875 0,-0.1562 c -3.5224,-1.0596 206.4807,-52.8162 213.5625,-52.8125 z"
       id="path3107-9-7"
       inkscape:connector-curvature="0"
       sodipodi:nodetypes="cccccccccccccccccccccccccccccccccccccc" />
    <path
       style="fill:none;stroke:#000000;stroke-width:0.17223334;stroke-miterlimit:4;stroke-opacity:1"
       d="m 226.54586,817.18905 c 7.08187,-0.004 215.18444,-51.91289 211.625,-52.96875 -0.007,-0.002 -0.0837,0.002 -0.0937,0 l -17.70312,-70.875 -8.85156,-35.4375 -8.65521,-17.72014 -0.19636,-17.71736 -24.6875,0 0,8.71875 -14.0625,0 0,-8.71875 -44.375,0 0,8.71875 -14.09375,0 0,-8.71875 -44.375,0 0,8.71875 -14.09375,0 0,-8.71875 -44.375,0 0,8.71875 -14.09375,0 0,-8.71875 -44.375,0 0,8.71875 -14.0625,0 0,-8.71875 -44.406252,0 0,8.71875 -14.0625,0 0,-8.71875 -23.28125,0 -0.16619,17.71875 -8.66974,17.71875 -8.83594,35.4375 -17.67188,70.875 0,0.15625 c -3.5224103,1.05955 206.480632,52.81617 213.562502,52.8125 z"
       id="path3107-0"
       inkscape:connector-curvature="0"
       sodipodi:nodetypes="cccccccccccccccccccccccccccccccccccccc" />
    <path
       style="fill:none;stroke:#000000;stroke-width:0.17223334;stroke-miterlimit:4;stroke-opacity:1"
       d="m 661.28339,824.78384 c -7.0819,0 -215.1844,-51.9129 -211.625,-52.9687 0.01,0 0.084,0 0.094,0 l 17.7032,-70.8751 8.8515,-35.4374 8.6552,-17.7202 0.1964,-17.7173 24.6875,0 0,8.7187 14.0625,0 0,-8.7187 44.375,0 0,8.7187 14.0937,0 0,-8.7187 44.375,0 0,8.7187 14.0938,0 0,-8.7187 44.375,0 0,8.7187 14.0937,0 0,-8.7187 44.375,0 0,8.7187 14.0625,0 0,-8.7187 44.4063,0 0,8.7187 14.0625,0 0,-8.7187 23.2812,0 0.1662,17.7187 8.6698,17.7188 8.8359,35.4374 17.6719,70.8751 0,0.1562 c 3.5224,1.0596 -206.4807,52.8162 -213.5625,52.8125 z"
       id="path3107-9-2"
       inkscape:connector-curvature="0"
       sodipodi:nodetypes="cccccccccccccccccccccccccccccccccccccc" />
    <path
       style="fill:none;stroke:#000000;stroke-width:0.17223334;stroke-miterlimit:4;stroke-opacity:1"
       d="m 616.64828,402.26386 c -0.004,-7.08187 -51.91289,-215.18444 -52.96875,-211.625 -0.002,0.007 0.002,0.0837 0,0.0937 l -70.875,17.70312 -35.4375,8.85156 -17.72014,8.65521 -17.71736,0.19636 0,24.6875 8.71875,0 0,14.0625 -8.71875,0 0,44.375 8.71875,0 0,14.09375 -8.71875,0 0,44.375 8.71875,0 0,14.09375 -8.71875,0 0,44.375 8.71875,0 0,14.09375 -8.71875,0 0,44.375 8.71875,0 0,14.0625 -8.71875,0 0,44.40625 8.71875,0 0,14.0625 -8.71875,0 0,23.28125 17.71875,0.16619 17.71875,8.66974 35.4375,8.83594 70.875,17.67188 0.15625,0 c 1.05955,3.52241 52.81617,-206.48063 52.8125,-213.5625 z"
       id="path3107-8"
       inkscape:connector-curvature="0"
       sodipodi:nodetypes="cccccccccccccccccccccccccccccccccccccc" />
    <path
       style="fill:none;stroke:#000000;stroke-width:0.17223334;stroke-miterlimit:4;stroke-opacity:1"
       d="m 623.35172,410.46039 c 0.004,7.08187 51.91289,215.18444 52.96875,211.625 0.002,-0.007 -0.002,-0.0837 0,-0.0937 l 70.875,-17.70313 35.4375,-8.85156 17.72014,-8.6552 17.71736,-0.19636 0,-24.6875 -8.71875,0 0,-14.0625 8.71875,0 0,-44.375 -8.71875,0 0,-14.09375 8.71875,0 0,-44.375 -8.71875,0 0,-14.09375 8.71875,0 0,-44.375 -8.71875,0 0,-14.09375 8.71875,0 0,-44.375 -8.71875,0 0,-14.0625 8.71875,0 0,-44.40625 -8.71875,0 0,-14.0625 8.71875,0 0,-23.28125 -17.71875,-0.16619 -17.71875,-8.66974 -35.4375,-8.83594 -70.875,-17.67188 -0.15625,0 c -1.05955,-3.52241 -52.81617,206.48063 -52.8125,213.5625 z"
       id="path3107-3-4"
       inkscape:connector-curvature="0"
       sodipodi:nodetypes="cccccccccccccccccccccccccccccccccccccc" />
  </g>
</svg>
