<?xml version="1.0" encoding="UTF-8" standalone="no"?>
<!-- Created with Inkscape (http://www.inkscape.org/) -->

<svg
   xmlns:dc="http://purl.org/dc/elements/1.1/"
   xmlns:cc="http://creativecommons.org/ns#"
   xmlns:rdf="http://www.w3.org/1999/02/22-rdf-syntax-ns#"
   xmlns:svg="http://www.w3.org/2000/svg"
   xmlns="http://www.w3.org/2000/svg"
   xmlns:sodipodi="http://sodipodi.sourceforge.net/DTD/sodipodi-0.dtd"
   xmlns:inkscape="http://www.inkscape.org/namespaces/inkscape"
   width="1062.9921"
   height="708.66138"
   id="svg3099"
   version="1.1"
   inkscape:version="0.48.4 r9939"
   sodipodi:docname="New document 3">
  <defs
     id="defs3101" />
  <sodipodi:namedview
     id="base"
     pagecolor="#ffffff"
     bordercolor="#666666"
     borderopacity="1.0"
     inkscape:pageopacity="0.0"
     inkscape:pageshadow="2"
     inkscape:zoom="2.8284271"
     inkscape:cx="213.18275"
     inkscape:cy="521.01021"
     inkscape:document-units="mm"
     inkscape:current-layer="layer1"
     showgrid="false"
     units="mm"
     inkscape:window-width="1920"
     inkscape:window-height="1031"
     inkscape:window-x="0"
     inkscape:window-y="25"
     inkscape:window-maximized="1" />
  <metadata
     id="metadata3104">
    <rdf:RDF>
      <cc:Work
         rdf:about="">
        <dc:format>image/svg+xml</dc:format>
        <dc:type
           rdf:resource="http://purl.org/dc/dcmitype/StillImage" />
        <dc:title></dc:title>
      </cc:Work>
    </rdf:RDF>
  </metadata>
  <g
     inkscape:label="Layer 1"
     inkscape:groupmode="layer"
     id="layer1"
     transform="translate(0,-343.70077)">
    <path
       style="fill:none;stroke:#000000;stroke-width:0.17223334;stroke-miterlimit:4;stroke-opacity:1"
       d="M 247.1875 17.78125 C 240.10563 17.78525 32.003059 69.69414 35.5625 70.75 C 35.5694 70.752 35.64619 70.748 35.65625 70.75 L 71.0625 212.5 L 95.75 212.5 L 95.75 203.78125 L 109.8125 203.78125 L 109.8125 212.5 L 154.1875 212.5 L 154.1875 203.78125 L 168.28125 203.78125 L 168.28125 212.5 L 212.65625 212.5 L 212.65625 203.78125 L 226.75 203.78125 L 226.75 212.5 L 271.125 212.5 L 271.125 203.78125 L 285.21875 203.78125 L 285.21875 212.5 L 329.59375 212.5 L 329.59375 203.78125 L 343.65625 203.78125 L 343.65625 212.5 L 388.0625 212.5 L 388.0625 203.78125 L 402.125 203.78125 L 402.125 212.5 L 425.40625 212.5 L 460.75 70.75 L 460.75 70.59375 C 464.27241 69.5342 254.26937 17.77758 247.1875 17.78125 z "
       transform="translate(0,343.70077)"
       id="path3107" />
  </g>
</svg>
