<?xml version="1.0" encoding="UTF-8" standalone="no"?>
<!-- Created with Inkscape (http://www.inkscape.org/) -->

<svg
   xmlns:dc="http://purl.org/dc/elements/1.1/"
   xmlns:cc="http://creativecommons.org/ns#"
   xmlns:rdf="http://www.w3.org/1999/02/22-rdf-syntax-ns#"
   xmlns:svg="http://www.w3.org/2000/svg"
   xmlns="http://www.w3.org/2000/svg"
   xmlns:sodipodi="http://sodipodi.sourceforge.net/DTD/sodipodi-0.dtd"
   xmlns:inkscape="http://www.inkscape.org/namespaces/inkscape"
   width="1062.9921"
   height="885.82672"
   id="svg3099"
   version="1.1"
   inkscape:version="0.48.4 r9939"
   sodipodi:docname="Shield Generator Emitter x7 and top crystal.svg">
  <defs
     id="defs3101" />
  <sodipodi:namedview
     id="base"
     pagecolor="#ffffff"
     bordercolor="#666666"
     borderopacity="1.0"
     inkscape:pageopacity="0.0"
     inkscape:pageshadow="2"
     inkscape:zoom="4"
     inkscape:cx="642.00796"
     inkscape:cy="512.15739"
     inkscape:document-units="mm"
     inkscape:current-layer="layer1"
     showgrid="false"
     units="mm"
     inkscape:window-width="1920"
     inkscape:window-height="1031"
     inkscape:window-x="0"
     inkscape:window-y="25"
     inkscape:window-maximized="1" />
  <metadata
     id="metadata3104">
    <rdf:RDF>
      <cc:Work
         rdf:about="">
        <dc:format>image/svg+xml</dc:format>
        <dc:type
           rdf:resource="http://purl.org/dc/dcmitype/StillImage" />
        <dc:title />
      </cc:Work>
    </rdf:RDF>
  </metadata>
  <g
     inkscape:label="Layer 1"
     inkscape:groupmode="layer"
     id="layer1"
     transform="translate(0,-166.5354)">
    <path
       style="fill:none;stroke:#000000;stroke-width:0.17223334;stroke-miterlimit:4;stroke-opacity:1"
       d="m 227.1875,187.48202 c -7.08187,0.004 -215.184441,51.91289 -211.625,52.96875 0.0069,0.002 0.08369,-0.002 0.09375,0 l 17.703125,70.875 8.851562,35.4375 8.655205,17.72014 0.196358,17.71736 24.6875,0 0,-8.71875 14.0625,0 0,8.71875 44.375,0 0,-8.71875 14.09375,0 0,8.71875 44.375,0 0,-8.71875 14.09375,0 0,8.71875 44.375,0 0,-8.71875 14.09375,0 0,8.71875 44.375,0 0,-8.71875 14.0625,0 0,8.71875 44.40625,0 0,-8.71875 14.0625,0 0,8.71875 23.28125,0 0.16619,-17.71875 8.66974,-17.71875 8.83594,-35.4375 17.67188,-70.875 0,-0.15625 c 3.52241,-1.05955 -206.48063,-52.81617 -213.5625,-52.8125 z"
       id="path3107"
       inkscape:connector-curvature="0"
       sodipodi:nodetypes="cccccccccccccccccccccccccccccccccccccc" />
    <path
       style="fill:none;stroke:#000000;stroke-width:0.17223334;stroke-miterlimit:4;stroke-opacity:1"
       d="m 232.60971,393.7424 c -7.08187,0.004 -215.18444,51.91289 -211.625,52.96875 0.007,0.002 0.0837,-0.002 0.0937,0 l 17.70313,70.875 8.85156,35.4375 8.6552,17.72014 0.19636,17.71736 24.6875,0 0,-8.71875 14.0625,0 0,8.71875 44.375,0 0,-8.71875 14.09375,0 0,8.71875 44.375,0 0,-8.71875 14.09375,0 0,8.71875 44.375,0 0,-8.71875 14.09375,0 0,8.71875 44.375,0 0,-8.71875 14.0625,0 0,8.71875 44.40625,0 0,-8.71875 14.0625,0 0,8.71875 23.28125,0 0.16619,-17.71875 8.66974,-17.71875 8.83594,-35.4375 17.67188,-70.875 0,-0.15625 c 3.52241,-1.05955 -206.48063,-52.81617 -213.5625,-52.8125 z"
       id="path3107-3"
       inkscape:connector-curvature="0"
       sodipodi:nodetypes="cccccccccccccccccccccccccccccccccccccc" />
    <path
       style="fill:none;stroke:#000000;stroke-width:0.17223334;stroke-miterlimit:4;stroke-opacity:1"
       d="m 228.60971,599.7424 c -7.08187,0.004 -215.184439,51.91289 -211.624998,52.96875 0.0069,0.002 0.08369,-0.002 0.09375,0 l 17.703124,70.875 8.851562,35.4375 8.655205,17.72014 0.196358,17.71736 24.6875,0 0,-8.71875 14.062499,0 0,8.71875 44.375,0 0,-8.71875 14.09375,0 0,8.71875 44.375,0 0,-8.71875 14.09375,0 0,8.71875 44.375,0 0,-8.71875 14.09375,0 0,8.71875 44.375,0 0,-8.71875 14.0625,0 0,8.71875 44.40625,0 0,-8.71875 14.0625,0 0,8.71875 23.28125,0 0.16619,-17.71875 8.66974,-17.71875 8.83594,-35.4375 17.67188,-70.875 0,-0.15625 c 3.52241,-1.05955 -206.48063,-52.81617 -213.5625,-52.8125 z"
       id="path3107-0"
       inkscape:connector-curvature="0"
       sodipodi:nodetypes="cccccccccccccccccccccccccccccccccccccc" />
    <path
       style="fill:none;stroke:#000000;stroke-width:0.1722333;stroke-miterlimit:4;stroke-opacity:1"
       d="m 462.67306,197.4897 -0.1875,17.71875 -8.65629,17.71875 -8.84375,35.4375 -17.71875,70.875 c -0.01,0.002 -0.0867,-0.002 -0.0937,0 -3.01386,0.89402 145.31589,38.16169 195.28129,49.59375 l 32.7812,0 C 705.596,377.44577 855.3436,340.29324 852.3606,339.39595 l 0,-0.15625 -17.6563,-70.875 -8.8437,-35.4375 -8.6875,-17.71875 -0.1563,-17.71875 -23.2812,0 0,7.17776 -14.0625,0 0,-7.17776 -44.4063,0 0,7.17776 -14.0625,0 0,-7.17776 -44.37504,0 0,7.17776 -14.0937,0 0,-7.17776 -12.81509,-2e-5 0,95.18684 -20.55118,5.6e-4 0.004,-95.1874 -11.01192,2e-5 0,7.17776 -14.0937,0 0,-7.17776 -44.375,0 0,7.17776 -14.0938,0 0,-7.17776 -44.375,0 0,7.17776 -14.0625,6.9e-4 0,-7.17845 z"
       id="path3107-9-5"
       inkscape:connector-curvature="0"
       sodipodi:nodetypes="ccccccccccccccccccccccccccccccccccccccccccc" />
    <path
       style="fill:none;stroke:#000000;stroke-width:0.17223334;stroke-miterlimit:4;stroke-opacity:1"
       d="m 462.67306,410.1147 -0.2188,17.6875 -8.65624,17.75 -8.84375,35.4375 -17.6875,70.875 c -0.01,0.002 -0.0867,-0.002 -0.0937,0 -3.01386,0.89402 145.31589,38.13044 195.28129,49.5625 l 6.91493,7.2e-4 0,-95.53125 20.55118,0 0,95.53125 5.37759,-7.2e-4 C 705.7325,590.01951 855.3421,552.91779 852.3606,552.02095 l 0,-0.15625 -17.6875,-70.875 -8.8437,-35.4375 -8.6563,-17.71875 -0.1562,-17.71875 -23.2813,0 0,7.15153 -14.0625,0 0,-7.15153 -44.4062,0 0,7.15153 -14.0625,0 0,-7.15153 -44.37504,0 0,7.15153 -14.0938,0 0,-7.15153 -44.375,0 0,7.15153 -14.0937,0 0,-7.15153 -44.375,0 0,7.15153 -14.0938,0 0,-7.15153 -44.375,0 0,7.15153 -14.0625,0 0,-7.15153 z"
       id="path3107-9-7-1"
       inkscape:connector-curvature="0"
       sodipodi:nodetypes="ccccccccccccccccccccccccccccccccccccccccccc" />
    <path
       style="fill:none;stroke:#000000;stroke-width:0.17223334;stroke-miterlimit:4;stroke-opacity:1"
       d="m 845.92106,433.90465 c 0.004,7.08187 51.91289,215.18445 52.96875,211.62501 0.002,-0.007 -0.002,-0.0837 0,-0.0937 l 70.875,-17.70313 35.43749,-8.85156 17.7201,-8.6552 17.7174,-0.19636 0,-24.6875 -8.7188,0 0,-14.0625 8.7188,0 0,-44.37501 -8.7188,0 0,-14.09375 8.7188,0 0,-44.375 -8.7188,0 0,-14.09375 8.7188,0 0,-44.375 -8.7188,0 0,-14.09375 8.7188,0 0,-44.37496 -8.7188,0 0,-14.0625 8.7188,0 0,-44.4063 -8.7188,0 0,-14.0625 8.7188,0 0,-23.2812 -17.7188,-0.1662 -17.7187,-8.6698 -35.43749,-8.8359 -70.875,-17.6719 -0.15625,0 c -1.05955,-3.5224 -52.81617,206.48064 -52.8125,213.56251 z"
       id="path3107-0-0"
       inkscape:connector-curvature="0"
       sodipodi:nodetypes="cccccccccccccccccccccccccccccccccccccc" />
    <path
       style="fill:none;stroke:#000000;stroke-width:0.17223334;stroke-miterlimit:4;stroke-opacity:1"
       d="m 641.60677,806.06761 c 7.08187,-0.004 215.18445,-51.91289 211.62501,-52.96875 -0.007,-0.002 -0.0837,0.002 -0.0937,0 l -17.70313,-70.875 -8.85156,-35.4375 -8.65521,-17.72014 -0.19635,-17.71736 -24.6875,0 0,8.71875 -14.0625,0 0,-8.71875 -44.37501,0 0,8.71875 -14.09375,0 0,-8.71875 -44.375,0 0,8.71875 -14.09375,0 0,-8.71875 -44.375,0 0,8.71875 -14.09375,0 0,-8.71875 -44.375,0 0,8.71875 -14.0625,0 0,-8.71875 -44.40625,0 0,8.71875 -14.0625,0 0,-8.71875 -23.28125,0 -0.16619,17.71875 -8.66974,17.71875 -8.83594,35.4375 -17.67188,70.875 0,0.15625 c -3.52241,1.05955 206.48063,52.81617 213.5625,52.8125 z"
       id="path3107-0-7"
       inkscape:connector-curvature="0"
       sodipodi:nodetypes="cccccccccccccccccccccccccccccccccccccc" />
    <path
       style="fill:none;stroke:#000000;stroke-width:0.17223334;stroke-miterlimit:4;stroke-opacity:1"
       d="m 233.79136,805.0961 c -7.08187,0.004 -215.184438,51.91289 -211.624997,52.96875 0.0069,0.002 0.08369,-0.002 0.09375,0 l 17.703123,70.87505 8.851562,35.4375 8.655205,17.7201 0.196358,17.7174 24.6875,0 0,-8.7188 14.062499,0 0,8.7188 44.375,0 0,-8.7188 14.09375,0 0,8.7188 44.375,0 0,-8.7188 14.09375,0 0,8.7188 44.375,0 0,-8.7188 14.09375,0 0,8.7188 44.375,0 0,-8.7188 14.0625,0 0,8.7188 44.40625,0 0,-8.7188 14.0625,0 0,8.7188 23.28125,0 0.16619,-17.7188 8.66974,-17.7187 8.83594,-35.4375 17.67188,-70.87505 0,-0.15625 c 3.52241,-1.05955 -206.48063,-52.81617 -213.5625,-52.8125 z"
       id="path3107-0-6"
       inkscape:connector-curvature="0"
       sodipodi:nodetypes="cccccccccccccccccccccccccccccccccccccc" />
    <path
       style="fill:none;stroke:#000000;stroke-width:0.17223334;stroke-miterlimit:4;stroke-opacity:1"
       d="m 647.26361,1005.4716 c 7.08187,0 215.18444,-51.91287 211.625,-52.96873 -0.007,-0.002 -0.0837,0.002 -0.0937,0 l -17.70312,-70.875 -8.85156,-35.4375 -8.65521,-17.72013 -0.19636,-17.7173 -24.6875,0 0,8.7187 -14.06249,0 0,-8.7187 -44.37501,0 0,8.7187 -14.09375,0 0,-8.7187 -44.375,0 0,8.7187 -14.09375,0 0,-8.7187 -44.375,0 0,8.7187 -14.09375,0 0,-8.7187 -44.375,0 0,8.7187 -14.0625,0 0,-8.7187 -44.4062,0 0,8.7187 -14.0625,0 0,-8.7187 -23.2813,0 -0.1662,17.7187 -8.6697,17.71873 -8.836,35.4375 -17.6718,70.875 0,0.15625 c -3.5225,1.05955 206.48058,52.81608 213.56245,52.81248 z"
       id="path3107-0-2"
       inkscape:connector-curvature="0"
       sodipodi:nodetypes="cccccccccccccccccccccccccccccccccccccc" />
  </g>
</svg>
