<?xml version="1.0" encoding="UTF-8" standalone="no"?>
<!-- Created with Inkscape (http://www.inkscape.org/) -->

<svg
   xmlns:dc="http://purl.org/dc/elements/1.1/"
   xmlns:cc="http://creativecommons.org/ns#"
   xmlns:rdf="http://www.w3.org/1999/02/22-rdf-syntax-ns#"
   xmlns:svg="http://www.w3.org/2000/svg"
   xmlns="http://www.w3.org/2000/svg"
   xmlns:sodipodi="http://sodipodi.sourceforge.net/DTD/sodipodi-0.dtd"
   xmlns:inkscape="http://www.inkscape.org/namespaces/inkscape"
   width="1062.9921"
   height="708.66138"
   id="svg3099"
   version="1.1"
   inkscape:version="0.48.4 r9939"
   sodipodi:docname="Shield Generator Emitter x 6.svg">
  <defs
     id="defs3101" />
  <sodipodi:namedview
     id="base"
     pagecolor="#ffffff"
     bordercolor="#666666"
     borderopacity="1.0"
     inkscape:pageopacity="0.0"
     inkscape:pageshadow="2"
     inkscape:zoom="2"
     inkscape:cx="642.91965"
     inkscape:cy="468.15739"
     inkscape:document-units="mm"
     inkscape:current-layer="layer1"
     showgrid="false"
     units="mm"
     inkscape:window-width="1920"
     inkscape:window-height="1031"
     inkscape:window-x="0"
     inkscape:window-y="25"
     inkscape:window-maximized="1" />
  <metadata
     id="metadata3104">
    <rdf:RDF>
      <cc:Work
         rdf:about="">
        <dc:format>image/svg+xml</dc:format>
        <dc:type
           rdf:resource="http://purl.org/dc/dcmitype/StillImage" />
        <dc:title></dc:title>
      </cc:Work>
    </rdf:RDF>
  </metadata>
  <g
     inkscape:label="Layer 1"
     inkscape:groupmode="layer"
     id="layer1"
     transform="translate(0,-343.70077)">
    <path
       style="fill:none;stroke:#000000;stroke-width:0.17223334;stroke-miterlimit:4;stroke-opacity:1"
       d="m 247.1875,17.78125 c -7.08187,0.004 -215.184441,51.91289 -211.625,52.96875 0.0069,0.002 0.08369,-0.002 0.09375,0 l 17.703125,70.875 8.851562,35.4375 8.655205,17.72014 0.196358,17.71736 24.6875,0 0,-8.71875 14.0625,0 0,8.71875 44.375,0 0,-8.71875 14.09375,0 0,8.71875 44.375,0 0,-8.71875 14.09375,0 0,8.71875 44.375,0 0,-8.71875 14.09375,0 0,8.71875 44.375,0 0,-8.71875 14.0625,0 0,8.71875 44.40625,0 0,-8.71875 14.0625,0 0,8.71875 23.28125,0 0.16619,-17.71875 8.66974,-17.71875 8.83594,-35.4375 17.67188,-70.875 0,-0.15625 C 464.27241,69.5342 254.26937,17.77758 247.1875,17.78125 z"
       transform="translate(0,343.70077)"
       id="path3107"
       inkscape:connector-curvature="0"
       sodipodi:nodetypes="cccccccccccccccccccccccccccccccccccccc" />
    <path
       style="fill:none;stroke:#000000;stroke-width:0.1722333;stroke-miterlimit:4;stroke-opacity:1"
       d="M 485.625 17.625 L 485.4375 35.34375 L 476.78125 53.0625 L 467.9375 88.5 L 450.21875 159.375 C 450.20875 159.377 450.132 159.373 450.125 159.375 C 447.11114 160.26902 595.44091 197.53669 645.40625 208.96875 L 678.1875 208.96875 C 728.54786 197.58107 878.29546 160.42854 875.3125 159.53125 L 875.3125 159.375 L 857.65625 88.5 L 848.8125 53.0625 L 840.125 35.34375 L 839.96875 17.625 L 816.6875 17.625 L 816.6875 26.34375 L 802.625 26.34375 L 802.625 17.625 L 758.21875 17.625 L 758.21875 26.34375 L 744.15625 26.34375 L 744.15625 17.625 L 699.78125 17.625 L 699.78125 26.34375 L 685.6875 26.34375 L 685.6875 17.625 L 673.375 17.625 L 673.375 112.8125 L 652.03125 112.8125 L 652.03125 17.625 L 641.3125 17.625 L 641.3125 26.34375 L 627.21875 26.34375 L 627.21875 17.625 L 582.84375 17.625 L 582.84375 26.34375 L 568.75 26.34375 L 568.75 17.625 L 524.375 17.625 L 524.375 26.34375 L 510.3125 26.34375 L 510.3125 17.625 L 485.625 17.625 z "
       transform="translate(0,343.70077)"
       id="path3107-9" />
    <path
       style="fill:none;stroke:#000000;stroke-width:0.17223334;stroke-miterlimit:4;stroke-opacity:1"
       d="m 252.60971,567.7424 c -7.08187,0.004 -215.18444,51.91289 -211.625,52.96875 0.007,0.002 0.0837,-0.002 0.0937,0 l 17.70313,70.875 8.85156,35.4375 8.6552,17.72014 0.19636,17.71736 24.6875,0 0,-8.71875 14.0625,0 0,8.71875 44.375,0 0,-8.71875 14.09375,0 0,8.71875 44.375,0 0,-8.71875 14.09375,0 0,8.71875 44.375,0 0,-8.71875 14.09375,0 0,8.71875 44.375,0 0,-8.71875 14.0625,0 0,8.71875 44.40625,0 0,-8.71875 14.0625,0 0,8.71875 23.28125,0 0.16619,-17.71875 8.66974,-17.71875 8.83594,-35.4375 17.67188,-70.875 0,-0.15625 c 3.52241,-1.05955 -206.48063,-52.81617 -213.5625,-52.8125 z"
       id="path3107-3"
       inkscape:connector-curvature="0"
       sodipodi:nodetypes="cccccccccccccccccccccccccccccccccccccc" />
    <path
       style="fill:none;stroke:#000000;stroke-width:0.17223334;stroke-miterlimit:4;stroke-opacity:1"
       d="M 485.625 230.25 L 485.40625 247.9375 L 476.75 265.6875 L 467.90625 301.125 L 450.21875 372 C 450.20875 372.002 450.132 371.998 450.125 372 C 447.11114 372.89402 595.44088 410.13044 645.40625 421.5625 L 652.03125 421.5625 L 652.03125 326.03125 L 673.34375 326.03125 L 673.34375 421.5625 L 678.25 421.5625 C 728.68438 410.15481 878.29398 373.05309 875.3125 372.15625 L 875.3125 372 L 857.625 301.125 L 848.78125 265.6875 L 840.125 247.96875 L 839.96875 230.25 L 816.6875 230.25 L 816.6875 238.96875 L 802.625 238.96875 L 802.625 230.25 L 758.21875 230.25 L 758.21875 238.96875 L 744.15625 238.96875 L 744.15625 230.25 L 699.78125 230.25 L 699.78125 238.96875 L 685.6875 238.96875 L 685.6875 230.25 L 641.3125 230.25 L 641.3125 238.96875 L 627.21875 238.96875 L 627.21875 230.25 L 582.84375 230.25 L 582.84375 238.96875 L 568.75 238.96875 L 568.75 230.25 L 524.375 230.25 L 524.375 238.96875 L 510.3125 238.96875 L 510.3125 230.25 L 485.625 230.25 z "
       transform="translate(0,343.70077)"
       id="path3107-9-7" />
    <path
       style="fill:none;stroke:#000000;stroke-width:0.17223334;stroke-miterlimit:4;stroke-opacity:1"
       d="m 248.60971,777.7424 c -7.08187,0.004 -215.184439,51.91289 -211.624998,52.96875 0.0069,0.002 0.08369,-0.002 0.09375,0 l 17.703124,70.875 8.851562,35.4375 8.655205,17.72014 0.196358,17.71736 24.6875,0 0,-8.71875 14.062499,0 0,8.71875 44.375,0 0,-8.71875 14.09375,0 0,8.71875 44.375,0 0,-8.71875 14.09375,0 0,8.71875 44.375,0 0,-8.71875 14.09375,0 0,8.71875 44.375,0 0,-8.71875 14.0625,0 0,8.71875 44.40625,0 0,-8.71875 14.0625,0 0,8.71875 23.28125,0 0.16619,-17.71875 8.66974,-17.71875 8.83594,-35.4375 17.67188,-70.875 0,-0.15625 c 3.52241,-1.05955 -206.48063,-52.81617 -213.5625,-52.8125 z"
       id="path3107-0"
       inkscape:connector-curvature="0"
       sodipodi:nodetypes="cccccccccccccccccccccccccccccccccccccc" />
  </g>
</svg>
